<svg xmlns:xlink="http://www.w3.org/1999/xlink" xmlns="http://www.w3.org/2000/svg" viewBox="0.0 0.0 100.0 100.0" fill="none" stroke="none" stroke-linecap="square" stroke-miterlimit="10"><clipPath id="p.0"><path d="m0 0l100.0 0l0 100.0l-100.0 0l0 -100.0z" clip-rule="nonzero"></path></clipPath><g clip-path="url(#p.0)"><path fill="#000000" fill-opacity="0.0" d="m0 0l100.0 0l0 100.0l-100.0 0z" fill-rule="evenodd"></path><path fill="#fc5d0d" d="m80.472 -7.446194E-4l0 0c10.785019 0 19.528 8.742984 19.528 19.528l0 60.943996l0 0c0 5.1791534 -2.0574112 10.146172 -5.7196198 13.808388c-3.6622086 3.6622086 -8.629234 5.719612 -13.80838 5.719612l-60.944 0c-10.785016 0 -19.528 -8.742981 -19.528 -19.528l0 -60.943996c0 -10.785017 8.742984 -19.528 19.528 -19.528z" fill-rule="evenodd"></path><path fill="#ffffff" d="m20.182404 43.4474l-0.6338177 0.13612366l-0.63381577 0.13611984l-0.5827713 0.22545242l-0.5870266 0.2679901l-0.544487 0.31903458l-0.49344063 0.40411377l-0.49769592 0.40836334l-0.40836525 0.49344254l-0.36157322 0.49769592l-0.35731983 0.5402336l-0.2722435 0.5870247l-0.22545147 0.5870247l-0.13612175 0.63381577l-0.13612175 0.6295624l0 0.67635727l0 0.68060684l0.13612175 0.67635727l0.13612175 0.6295624l0.22545147 0.5870247l0.2722435 0.5870247l0.35731983 0.544487l0.36157322 0.49344254l0.40836525 0.45090485l0.49769592 0.45090103l0.49344063 0.36157608l0.544487 0.31903458l0.5870266 0.3147812l0.5827713 0.22545242l0.63381577 0.13611984l0.6338177 0.08933258l0.67635536 0.046791077l0.67635536 -0.046791077l0.67635536 -0.08933258l0.63381577 -0.13611984l0.5870247 -0.22545242l0.5827732 -0.3147812l0.544487 -0.31903458l0.49769402 -0.36157608l0.45090485 -0.45090103l0.45090294 -0.45090485l0.36157227 -0.49344254l0.36157417 -0.544487l0.2679901 -0.5870247l0.22545052 -0.5870247l0.13612366 -0.6295624l0.089328766 -0.67635727l0.046792984 -0.68060684l-0.046792984 -0.67635727l-0.089328766 -0.6295624l-0.13612366 -0.63381577l-0.22545052 -0.5870247l-0.2679901 -0.5870247l-0.36157417 -0.5402336l-0.36157227 -0.49769592l-0.45090294 -0.49344254l-0.45090485 -0.40836334l-0.49769402 -0.40411377l-0.544487 -0.31903458l-0.5827732 -0.2679901l-0.5870247 -0.22545242l-0.63381577 -0.13611984l-0.67635536 -0.13612366z" fill-rule="evenodd"></path><path fill="#ffffff" d="m78.40849 43.4474l-0.680603 0.13612366l-0.6295624 0.13611984l-0.5870285 0.22545242l-0.5870285 0.2679901l-0.5402298 0.31903458l-0.49769592 0.40411377l-0.45090485 0.40836334l-0.45090485 0.49344254l-0.36157227 0.49769592l-0.3147812 0.5402336l-0.27223969 0.5870247l-0.22545624 0.5870247l-0.18291473 0.63381577l-0.08932495 0.6295624l-0.042541504 0.67635727l0.042541504 0.68060684l0.08932495 0.67635727l0.18291473 0.6295624l0.22545624 0.5870247l0.27223969 0.5870247l0.3147812 0.544487l0.36157227 0.49344254l0.45090485 0.45090485l0.45090485 0.45090103l0.49769592 0.36157608l0.5402298 0.31903458l0.5870285 0.3147812l0.5870285 0.22545242l0.6295624 0.13611984l0.680603 0.08933258l0.6763611 0.046791077l0.67635345 -0.046791077l0.6295624 -0.08933258l0.6338196 -0.13611984l0.63381195 -0.22545242l0.5402374 -0.3147812l0.5402298 -0.31903458l0.544487 -0.36157608l0.45090485 -0.45090103l0.40411377 -0.45090485l0.40836334 -0.49344254l0.3147812 -0.544487l0.2722473 -0.5870247l0.22544861 -0.5870247l0.17865753 -0.6295624l0.08933258 -0.67635727l0.046791077 -0.68060684l-0.046791077 -0.67635727l-0.08933258 -0.6295624l-0.17865753 -0.63381577l-0.22544861 -0.5870247l-0.2722473 -0.5870247l-0.3147812 -0.5402336l-0.40836334 -0.49769592l-0.40411377 -0.49344254l-0.45090485 -0.40836334l-0.544487 -0.40411377l-0.5402298 -0.31903458l-0.5402374 -0.2679901l-0.63381195 -0.22545242l-0.6338196 -0.13611984l-0.6295624 -0.13612366z" fill-rule="evenodd"></path><path fill="#ffffff" d="m32.458885 43.4474l0 13.135754l13.178291 0l0 -13.135754z" fill-rule="evenodd"></path><path fill="#ffffff" d="m58.951588 40.695187l-9.298817 9.294567l9.298817 9.2988205l9.298824 -9.2988205l-9.298824 -9.294567z" fill-rule="evenodd"></path></g></svg>