<?xml version="1.0" encoding="utf-8"?>
<!-- Executable file icon - JupyterLab standard file icon with play triangle overlay -->
<svg xmlns="http://www.w3.org/2000/svg" viewBox="0 0 22 22">
  <!-- JupyterLab standard file icon (from @jupyterlab/ui-components) -->
  <path fill="#616161" d="m19.3 8.2-5.5-5.5c-.3-.3-.7-.5-1.2-.5H3.9c-.8.1-1.6.9-1.6 1.8v14.1c0 .9.7 1.6 1.6 1.6h14.2c.9 0 1.6-.7 1.6-1.6V9.4c.1-.5-.1-.9-.4-1.2m-5.8-3.3 3.4 3.6h-3.4zm3.9 12.7H4.7c-.1 0-.2 0-.2-.2V4.7c0-.2.1-.3.2-.3h7.2v4.4s0 .8.3 1.1 1.1.3 1.1.3h4.3v7.2s-.1.2-.2.2"/>
  <!-- Play triangle overlay (bottom-right) -->
  <path fill="#66bb6a" d="M12,12 L20,16 L12,20 Z"/>
</svg>
