<?xml version="1.0" encoding="UTF-8" standalone="no"?>
<!-- Uploaded to: SVG Repo, www.svgrepo.com, Generator: SVG Repo Mixer Tools -->

<svg
   version="1.1"
   id="Layer_1"
   viewBox="0 0 490 490"
   xml:space="preserve"
   sodipodi:docname="license.svg"
   inkscape:version="1.4.3 (0d15f75, 2025-12-25)"
   xmlns:inkscape="http://www.inkscape.org/namespaces/inkscape"
   xmlns:sodipodi="http://sodipodi.sourceforge.net/DTD/sodipodi-0.dtd"
   xmlns="http://www.w3.org/2000/svg"
   xmlns:svg="http://www.w3.org/2000/svg"><defs
   id="defs18" /><sodipodi:namedview
   id="namedview18"
   pagecolor="#505050"
   bordercolor="#eeeeee"
   borderopacity="1"
   inkscape:showpageshadow="0"
   inkscape:pageopacity="0"
   inkscape:pagecheckerboard="0"
   inkscape:deskcolor="#505050"
   inkscape:zoom="1.9481513"
   inkscape:cx="209.17266"
   inkscape:cy="215.589"
   inkscape:window-width="2880"
   inkscape:window-height="1676"
   inkscape:window-x="-12"
   inkscape:window-y="-12"
   inkscape:window-maximized="1"
   inkscape:current-layer="g18" />
<g
   id="g18">
	<g
   id="XMLID_30_">
		<g
   id="g2">
			<path
   style="fill:#C33831;"
   d="M320,335.898c38.398-19.199,69.199,11.504,50,50c19.199,38.398-11.602,69.199-50,50     c-38.398,19.199-69.199-11.602-50-50C250.801,347.402,281.602,316.699,320,335.898z"
   id="path1" />
			<path
   style="fill:#e0bdbd;fill-opacity:1"
   d="M430,110v370H60V10h270v100H430z M370,385.898c19.199-38.496-11.602-69.199-50-50     c-38.398-19.199-69.199,11.504-50,50c-19.199,38.398,11.602,69.199,50,50C358.398,455.098,389.199,424.297,370,385.898z"
   id="path2" />
			<polygon
   style="fill:#c47878;fill-opacity:1"
   points="430,110 330,110 330,10    "
   id="polygon2" />
		</g>
		<g
   id="g17">
			<path
   style="fill:#231F20;"
   d="M439.976,110c-0.001-2.602-0.992-5.159-2.904-7.071l-100-100c-1.912-1.912-4.47-2.903-7.071-2.904     V0H60c-5.523,0-10,4.477-10,10v470c0,5.523,4.477,10,10,10h370c5.522,0,10-4.477,10-10V110H439.976z M340,34.142L405.857,100H340     V34.142z M70,470V20h250v90c0,5.523,4.478,10,10,10h90v350H70z"
   id="path3" />
			<path
   style="fill:#5e1c18;stroke-width:0.2;stroke-dasharray:none;stroke:none;stroke-opacity:1;fill-opacity:1"
   d="M379.447,339.49c-7.657-12.376-20.975-19.475-36.535-19.475c-7.511,0-15.198,1.64-22.912,4.882     c-7.714-3.242-15.401-4.882-22.912-4.882c-15.56,0-28.875,7.099-36.533,19.476c-8.036,12.989-8.541,29.684-1.551,46.403     c-6.992,16.688-6.49,33.368,1.542,46.364c7.666,12.403,20.998,19.516,36.577,19.515c7.501,0,15.178-1.637,22.877-4.872     c7.7,3.235,15.375,4.872,22.874,4.872c0.001,0,0.003,0,0.004,0c15.579-0.001,28.911-7.116,36.576-19.52     c8.031-12.996,8.533-29.673,1.542-46.358C387.988,369.172,387.483,352.478,379.447,339.49z M361.056,390.371     c5.903,11.806,6.408,23.239,1.385,31.368c-3.998,6.469-10.946,10.033-19.564,10.034c-5.817,0-12.01-1.621-18.404-4.818     c-1.407-0.704-2.94-1.056-4.472-1.056s-3.065,0.352-4.472,1.056c-6.393,3.196-12.586,4.817-18.406,4.818     c-8.618,0-15.566-3.562-19.564-10.03c-5.023-8.128-4.519-19.563,1.386-31.372c1.406-2.812,1.407-6.122,0.005-8.935     c-5.908-11.846-6.413-23.298-1.387-31.422c3.989-6.448,10.924-9.999,19.525-9.999c5.829,0,12.033,1.625,18.44,4.828     c2.815,1.407,6.129,1.407,8.943,0c6.407-3.204,12.611-4.828,18.44-4.828c8.603,0,15.538,3.551,19.527,9.998     c5.026,8.123,4.52,19.576-1.389,31.423C359.648,384.249,359.649,387.559,361.056,390.371z"
   id="path4" />
			<rect
   x="312.54074"
   y="363.25726"
   style="fill:#5e1c18;stroke:none;stroke-width:0.5;stroke-dasharray:none;fill-opacity:1"
   width="14.101851"
   height="12.831481"
   id="rect4" />
			<rect
   x="306.4426"
   y="394.43689"
   style="fill:#5e1c18;stroke:none;stroke-width:0.5;stroke-dasharray:none;fill-opacity:1"
   width="26.47963"
   height="7.2055554"
   id="rect5" />
			<rect
   x="95"
   y="395"
   style="fill:#231F20;"
   width="120"
   height="20"
   id="rect6" />
			<rect
   x="195"
   y="430"
   style="fill:#231F20;"
   width="20"
   height="20"
   id="rect7" />
			<rect
   x="165"
   y="430"
   style="fill:#231F20;"
   width="20"
   height="20"
   id="rect8" />
			<rect
   x="95"
   y="430"
   style="fill:#231F20;"
   width="20"
   height="20"
   id="rect9" />
			<rect
   x="95"
   y="40"
   style="fill:#231F20;"
   width="60"
   height="20"
   id="rect10" />
			<rect
   x="95"
   y="70"
   style="fill:#231F20;"
   width="120"
   height="20"
   id="rect11" />
			<rect
   x="165"
   y="150"
   style="fill:#231F20;"
   width="160"
   height="20"
   id="rect12" />
			<rect
   x="95"
   y="190"
   style="fill:#231F20;"
   width="300"
   height="20"
   id="rect13" />
			<rect
   x="95"
   y="230"
   style="fill:#231F20;"
   width="300"
   height="20"
   id="rect14" />
			<rect
   x="95"
   y="270"
   style="fill:#231F20;"
   width="240"
   height="20"
   id="rect15" />
			<rect
   x="375"
   y="270"
   style="fill:#231F20;"
   width="20"
   height="20"
   id="rect16"
   inkscape:label="rect16" />
			<rect
   x="345"
   y="270"
   style="fill:#231F20;"
   width="20"
   height="20"
   id="rect17" />
		</g>
	</g>
</g>
</svg>
